<svg width="160" height="151" viewBox="0 0 160 151" fill="none" xmlns="http://www.w3.org/2000/svg">
<path fill-rule="evenodd" clip-rule="evenodd" d="M2.02015 108.685C2.63763 108.465 3.28741 108.172 3.78849 107.749C4.38361 107.246 4.62564 106.598 4.78817 105.917C4.99684 105.041 5.08021 104.108 5.33324 103.231C5.42692 102.905 5.60722 102.782 5.68458 102.727C5.88011 102.589 6.07776 102.552 6.26371 102.566C6.48409 102.582 6.78681 102.665 6.98589 103.035C7.01428 103.088 7.05118 103.168 7.07602 103.279C7.09411 103.36 7.10583 103.613 7.12499 103.717C7.1729 103.974 7.213 104.231 7.25061 104.489C7.37588 105.349 7.44793 106.079 7.84361 106.869C8.38053 107.942 8.91853 108.598 9.64814 108.888C10.3536 109.169 11.1972 109.117 12.2749 108.896C12.3775 108.871 12.4789 108.85 12.5794 108.833C13.0545 108.75 13.5088 109.062 13.6021 109.535C13.6954 110.008 13.3935 110.469 12.9225 110.573C12.8242 110.595 12.7274 110.615 12.6315 110.634C11.1752 110.995 9.48915 112.281 8.50934 113.408C8.20735 113.756 7.76518 114.727 7.31414 115.346C6.98127 115.803 6.60723 116.105 6.29317 116.211C6.08273 116.283 5.9053 116.272 5.75874 116.236C5.54582 116.183 5.3691 116.068 5.23354 115.884C5.15972 115.784 5.09122 115.649 5.05857 115.478C5.04296 115.395 5.04119 115.185 5.04155 115.09C4.94963 114.774 4.83714 114.465 4.75516 114.146C4.55963 113.385 4.17601 112.903 3.72035 112.266C3.29415 111.67 2.83638 111.296 2.16532 110.997C2.07802 110.976 1.3736 110.803 1.12483 110.704C0.761442 110.559 0.588255 110.316 0.525443 110.185C0.418627 109.963 0.407635 109.769 0.428928 109.607C0.460511 109.368 0.567683 109.164 0.757895 108.999C0.875712 108.896 1.05173 108.797 1.28736 108.748C1.46941 108.71 1.95237 108.688 2.02015 108.685ZM6.15264 107.444C6.18529 107.517 6.22007 107.59 6.25698 107.664C7.04337 109.234 7.92274 110.111 8.99162 110.537L9.02746 110.551C8.3124 111.082 7.6651 111.675 7.17041 112.244C6.96671 112.478 6.69702 112.964 6.40567 113.463C6.14094 112.603 5.70799 111.995 5.16362 111.233C4.74771 110.653 4.31193 110.215 3.77643 109.859C4.19198 109.646 4.58837 109.396 4.93366 109.104C5.50855 108.618 5.88862 108.056 6.15264 107.444Z" fill="#1749B3"/>
<circle cx="17.72" cy="3.95333" r="3.46" fill="#1749B3"/>
<circle cx="155.543" cy="76.0367" r="3.46" fill="#1749B3"/>
<path d="M74.81 131.973C111.117 131.973 140.55 102.541 140.55 66.2333C140.55 29.9261 111.117 0.493332 74.81 0.493332C38.5028 0.493332 9.07001 29.9261 9.07001 66.2333C9.07001 102.541 38.5028 131.973 74.81 131.973Z" fill="url(#paint0_linear_701_778)"/>
<path fill-rule="evenodd" clip-rule="evenodd" d="M74.5217 26.4433C81.6876 26.4433 87.4967 20.6342 87.4967 13.4683C87.4967 6.30244 81.6876 0.493332 74.5217 0.493332C67.3558 0.493332 61.5467 6.30244 61.5467 13.4683C61.5467 20.6342 67.3558 26.4433 74.5217 26.4433ZM74.2334 20.6767C78.0552 20.6767 81.1534 17.5785 81.1534 13.7567C81.1534 9.93485 78.0552 6.83666 74.2334 6.83666C70.4115 6.83666 67.3134 9.93485 67.3134 13.7567C67.3134 17.5785 70.4115 20.6767 74.2334 20.6767Z" fill="#011625"/>
<path d="M74.2622 117.614C88.2914 117.614 99.6643 106.241 99.6643 92.2121C99.6643 78.1829 88.2914 66.81 74.2622 66.81C60.233 66.81 48.86 78.1829 48.86 92.2121C48.86 106.241 60.233 117.614 74.2622 117.614Z" fill="#FE0000"/>
<path d="M114.466 73.3257V53.8372C114.466 43.2072 110.243 33.0126 102.726 25.496C95.2098 17.9794 85.0151 13.7567 74.3851 13.7567C63.7551 13.7567 53.5604 17.9794 46.0439 25.496C38.5273 33.0126 34.3046 43.2072 34.3046 53.8372V73.3257C34.305 77.8031 33.0384 82.1891 30.6512 85.9769C28.264 89.7647 24.8535 92.7997 20.8141 94.7309C19.8857 95.173 19.102 95.8698 18.5542 96.7401C18.0065 97.6103 17.7172 98.6183 17.7201 99.6466V99.7522C17.7194 100.124 17.7919 100.491 17.9336 100.835C18.0752 101.178 18.2832 101.49 18.5455 101.753C18.8079 102.016 19.1196 102.224 19.4626 102.367C19.8057 102.509 20.1735 102.582 20.5449 102.582H128.22C128.591 102.582 128.959 102.509 129.302 102.367C129.645 102.224 129.957 102.016 130.219 101.753C130.482 101.49 130.69 101.178 130.831 100.835C130.973 100.491 131.046 100.124 131.045 99.7522V99.6466C131.045 98.6215 130.755 97.6173 130.209 96.7502C129.662 95.8831 128.881 95.1885 127.956 94.7467C123.914 92.8143 120.502 89.777 118.115 85.9861C115.727 82.1952 114.462 77.8057 114.466 73.3257Z" fill="#E1DCEB"/>
<path fill-rule="evenodd" clip-rule="evenodd" d="M131.323 102.563H17.72V99.1033H131.323V102.563Z" fill="#011625"/>
<path fill-rule="evenodd" clip-rule="evenodd" d="M43.1558 111.387C40.3932 113.886 37.6384 116.333 34.9499 118.911C34.3695 119.464 34.3477 120.374 34.8968 120.948C35.4476 121.528 36.3636 121.546 36.9385 120.995C39.6141 118.434 42.3448 116.007 45.089 113.526C45.6802 112.988 45.7259 112.076 45.197 111.489C44.6609 110.899 43.747 110.85 43.1558 111.387Z" fill="#011625"/>
<path fill-rule="evenodd" clip-rule="evenodd" d="M105.56 111.388C108.307 113.888 111.047 116.336 113.719 118.914C114.296 119.466 114.314 120.376 113.762 120.949C113.209 121.528 112.294 121.545 111.723 120.994C109.063 118.432 106.347 116.004 103.618 113.523C103.031 112.986 102.989 112.074 103.521 111.488C104.059 110.899 104.972 110.851 105.56 111.388Z" fill="#011625"/>
<path fill-rule="evenodd" clip-rule="evenodd" d="M72.5911 127.531C72.5474 131.247 72.4715 134.924 72.536 138.64C72.547 139.439 73.1998 140.071 73.9932 140.056C74.7919 140.044 75.4269 139.384 75.4135 138.59C75.3522 134.894 75.4264 131.249 75.4709 127.558C75.478 126.761 74.8401 126.11 74.0511 126.101C73.2545 126.096 72.5982 126.733 72.5911 127.531Z" fill="#011625"/>
<defs>
<linearGradient id="paint0_linear_701_778" x1="74.3032" y1="-20.9132" x2="75.6499" y2="209.956" gradientUnits="userSpaceOnUse">
<stop stop-color="#F9F9F9"/>
<stop offset="1" stop-color="#EFEFEF"/>
</linearGradient>
</defs>
</svg>
