<svg width="142" height="115" viewBox="0 0 142 115" fill="none" xmlns="http://www.w3.org/2000/svg">
<path d="M68.2805 114.877C100.182 114.877 126.044 89.2995 126.044 57.7483C126.044 26.1972 100.182 0.62001 68.2805 0.62001C36.3786 0.62001 10.517 26.1972 10.517 57.7483C10.517 89.2995 36.3786 114.877 68.2805 114.877Z" fill="url(#paint0_linear_701_698)"/>
<path fill-rule="evenodd" clip-rule="evenodd" d="M118.118 94.1653C118.645 93.9798 119.199 93.7333 119.626 93.3763C120.133 92.9524 120.339 92.4063 120.478 91.8316C120.656 91.0931 120.727 90.3065 120.943 89.5669C121.023 89.2923 121.176 89.1884 121.242 89.1424C121.409 89.026 121.577 88.9949 121.736 89.0065C121.924 89.02 122.182 89.0903 122.352 89.4018C122.376 89.4463 122.407 89.5143 122.428 89.6073C122.444 89.6755 122.454 89.8889 122.47 89.9768C122.511 90.1934 122.545 90.4101 122.577 90.6279C122.684 91.3529 122.745 91.9686 123.083 92.6346C123.54 93.5388 123.999 94.092 124.621 94.3371C125.223 94.574 125.942 94.5294 126.86 94.3436C126.948 94.3227 127.034 94.3047 127.12 94.2901C127.525 94.2201 127.912 94.4831 127.992 94.8822C128.071 95.281 127.814 95.6697 127.412 95.7574C127.329 95.7756 127.246 95.793 127.164 95.8088C125.923 96.1128 124.486 97.1977 123.65 98.1477C123.393 98.4406 123.016 99.2595 122.631 99.7819C122.348 100.167 122.029 100.421 121.761 100.511C121.582 100.571 121.43 100.562 121.305 100.532C121.124 100.487 120.973 100.39 120.858 100.235C120.795 100.151 120.736 100.037 120.709 99.8926C120.695 99.8229 120.694 99.6457 120.694 99.5656C120.616 99.299 120.52 99.0387 120.45 98.7697C120.283 98.1279 119.956 97.7216 119.568 97.1848C119.204 96.6825 118.814 96.3668 118.242 96.1149C118.168 96.0969 117.567 95.9515 117.355 95.8681C117.045 95.7457 116.898 95.5407 116.844 95.4303C116.753 95.243 116.744 95.0794 116.762 94.9429C116.789 94.7416 116.88 94.5692 117.042 94.4301C117.143 94.3436 117.293 94.2596 117.494 94.2186C117.649 94.1866 118.061 94.168 118.118 94.1653ZM121.641 93.1193C121.669 93.1806 121.699 93.2423 121.73 93.3045C122.401 94.6288 123.15 95.3681 124.061 95.7268L124.092 95.7385C123.482 96.1861 122.931 96.6864 122.509 97.166C122.335 97.3635 122.105 97.7737 121.857 98.1943C121.631 97.4688 121.262 96.9559 120.798 96.3142C120.444 95.8244 120.072 95.4558 119.615 95.1554C119.97 94.9756 120.308 94.7649 120.602 94.519C121.092 94.1094 121.416 93.6348 121.641 93.1193Z" fill="#1749B3"/>
<ellipse cx="2.76563" cy="46.6159" rx="2.73572" ry="2.70564" fill="#1749B3"/>
<path d="M22.0357 16.9012L22.0358 16.9012C24.126 18.2353 25.4868 20.0781 26.1798 22.4414L26.4213 22.3705L26.1795 22.4403C26.3014 22.8629 26.7453 23.1022 27.1663 22.9803L27.1666 22.9802C27.5854 22.8584 27.8328 22.4187 27.7078 21.9959C26.905 19.2587 25.3176 17.1128 22.8945 15.5655L22.0357 16.9012ZM22.0357 16.9012C21.6666 16.6653 21.5569 16.1741 21.7964 15.8045L22.0357 16.9012Z" fill="#011625" stroke="#011625" stroke-width="0.503333"/>
<path d="M52.0008 23.2764L52.001 23.2764C52.547 23.0004 52.7434 22.4723 52.6934 21.908C52.6494 21.3923 52.3747 20.8172 52.226 20.5559L52.0008 23.2764ZM52.0008 23.2764C51.3664 23.5966 50.8254 23.5755 50.3933 23.3614C49.9811 23.1577 49.6798 22.7682 49.4966 22.2849L49.4965 22.2849M52.0008 23.2764L49.4965 22.2849M49.4965 22.2849C49.322 21.8239 49.2524 21.257 49.2451 20.7213C49.2386 20.2438 49.2815 19.7744 49.3534 19.4017C48.9392 18.9878 48.4886 18.6101 48.0083 18.2715C44.1983 15.5859 38.5502 16.5457 34.155 20.6497C33.4226 21.3339 32.8629 22.4132 32.4377 23.7533C32.0139 25.0892 31.7316 26.659 31.5376 28.2988L31.5376 28.2988M49.4965 22.2849L31.5376 28.2988M31.5376 28.2988C31.0118 32.7399 31.2039 37.6334 31.2947 39.9458C31.3083 40.2927 31.3196 40.5815 31.3259 40.802L31.3259 40.8026L31.5376 28.2988ZM30.6589 42.0952L30.6616 42.0947C30.8327 42.0624 31.1077 41.9663 31.2556 41.6182C31.2557 41.6178 31.2559 41.6175 31.256 41.6171L31.0243 41.519L30.6589 42.0952ZM30.6589 42.0952C30.4173 42.1381 30.2157 42.092 30.0532 42.0082L30.0519 42.0075M30.6589 42.0952L30.0519 42.0075M30.0519 42.0075C29.8302 41.8915 29.6541 41.6877 29.575 41.3946L29.5746 41.3928M30.0519 42.0075L29.5746 41.3928M29.5746 41.3928C29.5326 41.2325 29.525 41.0296 29.5294 40.8395L29.5295 40.8368M29.5746 41.3928L29.5295 40.8368M29.5295 40.8368C29.5308 40.7984 29.5337 40.7605 29.5364 40.7274C29.5392 40.6923 29.5417 40.664 29.5434 40.636C29.5451 40.6086 29.5455 40.5879 29.5449 40.572C29.5442 40.5556 29.5426 40.5508 29.5433 40.5532L29.7854 40.4845L29.5435 40.5542C29.3973 40.0466 29.225 39.5495 29.0496 39.0436C29.024 38.9698 28.9983 38.8958 28.9727 38.8215L28.9725 38.821M29.5295 40.8368L28.9725 38.821M28.9725 38.821C28.3099 36.8889 27.452 35.075 26.4948 33.2563L26.7175 33.1391M28.9725 38.821L26.7175 33.1391M26.7175 33.1391L26.4948 33.2563C26.2377 32.7678 25.9816 32.2774 25.7251 31.7863C22.9294 26.4339 20.0909 20.9997 15.5489 16.9886L15.5488 16.9886M26.7175 33.1391L15.5488 16.9886M15.5488 16.9886C15.221 16.6989 15.188 16.1967 15.4819 15.8681C15.7731 15.5401 16.2752 15.5125 16.6042 15.8008L16.6049 15.8014C21.3513 19.992 24.3172 25.6628 27.1854 31.1469C27.4255 31.6061 27.665 32.064 27.9048 32.5196L27.9048 32.5196C28.5135 33.6765 29.0861 34.8372 29.5977 36.0295M15.5488 16.9886L29.5977 36.0295M29.5977 36.0295C29.5735 33.3234 29.6576 29.9733 30.1113 26.9531C30.3481 25.3759 30.6929 23.8825 31.1726 22.6007C31.6514 21.3214 32.2708 20.236 33.0668 19.4923L33.0669 19.4923C37.9972 14.8885 44.485 13.8437 48.9276 16.9766L48.9277 16.9767C49.3123 17.2481 49.6823 17.5418 50.033 17.8567C52.4167 13.8899 57.267 12.3344 61.5607 14.2841C61.5608 14.2841 61.5608 14.2841 61.5609 14.2842L29.5977 36.0295ZM51.0894 21.9367C51.0858 21.9361 51.0866 21.937 51.0947 21.9358L51.0894 21.9367ZM51.0894 21.9367C51.0905 21.9413 51.0916 21.946 51.0926 21.9506C51.0929 21.9524 51.0933 21.9543 51.0936 21.9565C51.0938 21.9572 51.0939 21.9581 51.094 21.9589C51.0962 21.9731 51.0985 21.9949 51.1 22.0225C51.1019 22.0546 51.1023 22.0856 51.1023 22.105L51.0894 21.9367ZM50.986 21.7243L50.9862 21.7246C51.0155 21.8018 51.0384 21.8554 51.0624 21.8947C51.0728 21.9116 51.0812 21.9223 51.0876 21.9291C51.0482 21.764 50.9734 21.5925 50.9069 21.461C50.9289 21.5547 50.9551 21.6432 50.986 21.7243ZM51.3388 21.8984L51.3388 21.8984L51.3388 21.8984Z" fill="#011625" stroke="#011625" stroke-width="0.503333"/>
<rect x="41.6212" y="30.2598" width="99.4368" height="35.4515" rx="12.08" fill="#011625"/>
<rect x="82.668" y="42.4644" width="33.531" height="4.64938" rx="2.32469" fill="#CCC6D9"/>
<rect x="50.2932" y="49.4384" width="66.0747" height="4.64938" rx="2.32469" fill="white"/>
<ellipse cx="128.339" cy="48.2761" rx="5.78121" ry="5.81173" fill="#E1DCEB"/>
<rect x="0.0299072" y="59.8996" width="99.4368" height="35.4515" rx="12.08" fill="#E1DCEB"/>
<rect x="24.8892" y="72.1042" width="33.531" height="4.64938" rx="2.32469" fill="#FE0000"/>
<rect x="24.8892" y="79.0784" width="66.0747" height="4.64938" rx="2.32469" fill="white"/>
<ellipse cx="14.483" cy="77.9159" rx="5.78121" ry="5.81173" fill="#FE0000"/>
<defs>
<linearGradient id="paint0_linear_701_698" x1="67.8352" y1="-17.9824" x2="68.9926" y2="182.644" gradientUnits="userSpaceOnUse">
<stop stop-color="#E9E6E6"/>
<stop offset="0.276042" stop-color="#F7F7F7"/>
</linearGradient>
</defs>
</svg>
