<svg width="185" height="171" viewBox="0 0 185 171" fill="none" xmlns="http://www.w3.org/2000/svg">
<path d="M95.4833 170.533C136.583 170.533 169.9 137.216 169.9 96.1167C169.9 55.0175 136.583 21.7 95.4833 21.7C54.3841 21.7 21.0667 55.0175 21.0667 96.1167C21.0667 137.216 54.3841 170.533 95.4833 170.533Z" fill="url(#paint0_linear_701_220)"/>
<path d="M50.6215 124.933L81.8913 39.0681L147.833 108.791L71.2452 143.949C58.9768 149.58 46.0022 137.618 50.6215 124.933Z" fill="#E1DCEB"/>
<path d="M123.394 66.1848C132.498 75.8853 139.837 85.5025 144.344 93.2044C146.598 97.0576 148.135 100.416 148.835 103.057C149.185 104.378 149.321 105.503 149.243 106.412C149.164 107.319 148.876 107.99 148.395 108.441C147.914 108.892 147.226 109.138 146.316 109.158C145.404 109.179 144.29 108.972 142.994 108.539C140.403 107.673 137.148 105.927 133.445 103.433C126.044 98.4477 116.911 90.5149 107.807 80.8143C98.7022 71.1138 91.3635 61.4966 86.857 53.7947C84.6024 49.9415 83.0657 46.5829 82.3659 43.9418C82.0159 42.6211 81.8797 41.4962 81.958 40.587C82.0362 39.6803 82.325 39.0095 82.8058 38.5583C83.2865 38.107 83.9743 37.8612 84.8841 37.8407C85.7965 37.82 86.9105 38.0272 88.2064 38.4601C90.7979 39.3258 94.0524 41.0721 97.7551 43.5661C105.156 48.5514 114.289 56.4842 123.394 66.1848Z" fill="#011625" stroke="#011625" stroke-width="0.633333"/>
<mask id="mask0_701_220" style="mask-type:alpha" maskUnits="userSpaceOnUse" x="49" y="39" width="99" height="107">
<path d="M50.6215 124.933L81.8913 39.0681L147.833 108.791L71.2452 143.949C58.9768 149.58 46.0022 137.618 50.6215 124.933Z" fill="#E1DCEB"/>
</mask>
<g mask="url(#mask0_701_220)">
<path fill-rule="evenodd" clip-rule="evenodd" d="M80.4253 96.1637C67.2138 78.862 60.5292 58.2352 58.3732 44.3869L69.0117 42.7306C70.9524 55.1958 77.0779 74.0393 88.9824 89.6295C100.775 105.073 118.028 117.116 142.633 117.116V127.883C113.918 127.883 93.7487 113.612 80.4253 96.1637Z" fill="#011625"/>
<path fill-rule="evenodd" clip-rule="evenodd" d="M81.8433 92.8548C68.6319 75.5531 61.9473 54.9263 59.7913 41.078L70.4298 39.4217C72.3705 51.887 78.496 70.7305 90.4005 86.3206C102.193 101.764 119.446 113.807 144.051 113.807V124.574C115.336 124.574 95.1668 110.303 81.8433 92.8548Z" fill="white"/>
<path fill-rule="evenodd" clip-rule="evenodd" d="M64.8263 117.908C51.6148 100.606 44.9302 79.9793 42.7742 66.131L53.4127 64.4747C55.3534 76.94 61.4789 95.7834 73.3834 111.374C85.176 126.817 102.429 138.86 127.034 138.86V149.627C98.3188 149.627 78.1497 135.356 64.8263 117.908Z" fill="white"/>
</g>
<circle cx="111" cy="131.9" r="19" fill="#FE0000"/>
<path fill-rule="evenodd" clip-rule="evenodd" d="M118.688 126.135C119.424 126.883 119.414 128.086 118.665 128.822L109.645 137.688C108.906 138.415 107.721 138.415 106.981 137.688L103.335 134.104C102.587 133.368 102.576 132.165 103.312 131.417C104.047 130.669 105.25 130.658 105.999 131.394L108.313 133.669L116.002 126.112C116.75 125.376 117.953 125.386 118.688 126.135Z" fill="white"/>
<path d="M148.154 41.1872L148.154 41.187C149.278 38.3317 149.726 35.4841 150.196 32.4994C150.276 31.9908 150.357 31.4782 150.442 30.961L148.154 41.1872ZM148.154 41.1872C147.963 41.6745 147.41 41.9155 146.923 41.7231L146.921 41.7224C146.434 41.533 146.193 40.9821 146.385 40.4953L146.385 40.4953M148.154 41.1872L146.385 40.4953M146.385 40.4953C147.457 37.7693 147.881 35.0395 148.311 32.2676M146.385 40.4953L148.311 32.2676M148.311 32.2676C148.394 31.7321 148.477 31.1949 148.565 30.656L148.311 32.2676ZM149.657 29.8716C150.175 29.9571 150.526 30.4443 150.442 30.9609L148.565 30.6558C148.651 30.138 149.14 29.7864 149.657 29.8716Z" fill="#011625" stroke="#011625" stroke-width="0.633333"/>
<path d="M153.603 47.2475C159.98 42.8331 166.228 36.8884 170.874 30.6607L170.874 30.6605C171.187 30.2414 171.783 30.1543 172.205 30.4665C172.625 30.7771 172.713 31.3712 172.4 31.791C167.639 38.1736 161.23 44.272 154.689 48.8027L154.689 48.8029C154.259 49.1016 153.666 48.9942 153.366 48.5647C153.068 48.1372 153.173 47.5469 153.603 47.2475ZM153.603 47.2475L153.423 46.9874L153.604 47.2472C153.604 47.2473 153.604 47.2474 153.603 47.2475Z" fill="#011625" stroke="#011625" stroke-width="0.633333"/>
<path d="M172.241 52.9766L172.241 52.9772C172.385 53.4745 172.096 54 171.589 54.1467C166.462 55.6117 160.813 56.3569 155.664 54.785C155.162 54.6316 154.88 54.0994 155.033 53.6024L155.033 53.6022C155.185 53.1048 155.717 52.8214 156.219 52.9749L156.219 52.9749C161.074 54.4563 166.352 53.6733 171.064 52.3252C171.57 52.1823 172.096 52.4741 172.241 52.9766Z" fill="#011625" stroke="#011625" stroke-width="0.633333"/>
<circle cx="155.967" cy="64.1333" r="3.8" fill="#1749B3"/>
<circle cx="124.3" cy="24.8667" r="3.8" fill="#1749B3"/>
<path d="M131.61 41.6251C131.282 40.2672 129.351 40.2673 129.023 41.6251L128.599 43.384C128.481 43.8692 128.103 44.2481 127.617 44.3653L125.858 44.7898C124.501 45.1176 124.501 47.0491 125.858 47.3768L127.617 47.8014C128.103 47.9186 128.481 48.2974 128.599 48.7827L129.023 50.5415C129.351 51.8994 131.282 51.8994 131.61 50.5415L132.035 48.7827C132.152 48.2974 132.531 47.9186 133.016 47.8014L134.775 47.3768C136.133 47.0491 136.133 45.1176 134.775 44.7898L133.016 44.3653C132.531 44.2481 132.152 43.8692 132.035 43.384L131.61 41.6251Z" fill="#1749B3"/>
<path fill-rule="evenodd" clip-rule="evenodd" d="M115.411 12.3967C115.795 13.3732 115.315 14.4762 114.338 14.8602C111.551 15.9563 107.979 19.487 105.594 23.8816C103.778 27.2266 102.896 30.6049 103.266 33.3696C104.382 31.7775 105.717 30.4715 107.266 29.6326C110.042 28.1287 113.21 28.2883 116.277 30.3782C118.956 32.2042 120.049 34.8025 119.76 37.3914C119.483 39.8668 117.973 42.1045 115.924 43.5102C113.845 44.937 111.085 45.595 108.237 44.723C106.623 44.2286 105.074 43.2727 103.658 41.8212C102.306 47.0832 102.355 53.6743 104.589 59.5037C104.964 60.4835 104.474 61.5823 103.494 61.9578C102.514 62.3332 101.416 61.8433 101.04 60.8635C98.0941 53.1756 98.4768 44.3953 100.879 38.0006C100.811 37.8772 100.743 37.7523 100.676 37.6256C98.1489 32.8537 99.6621 26.8441 102.254 22.0689C104.865 17.2568 109.007 12.8734 112.948 11.3238C113.924 10.9398 115.027 11.4201 115.411 12.3967ZM105.146 37.6739C106.581 39.7124 108.07 40.6976 109.35 41.0895C110.961 41.583 112.533 41.2291 113.774 40.377C115.047 39.504 115.846 38.196 115.983 36.9693C116.107 35.8562 115.719 34.5963 114.137 33.5184C112.132 32.1522 110.486 32.2103 109.076 32.9739C107.67 33.7353 106.278 35.3287 105.146 37.6739Z" fill="#E3E3E3"/>
<path fill-rule="evenodd" clip-rule="evenodd" d="M176.746 86.7063C156.83 79.304 141.589 88.5085 136.66 93.7146C135.458 94.9846 133.454 95.0395 132.184 93.8372C130.914 92.6349 130.859 90.6306 132.061 89.3605C138.32 82.7491 156.136 72.2894 178.952 80.7698C180.591 81.3791 181.426 83.202 180.817 84.8413C180.208 86.4806 178.385 87.3156 176.746 86.7063Z" fill="#CCC6D9"/>
<path fill-rule="evenodd" clip-rule="evenodd" d="M156.485 93.3609C156.929 93.1981 157.397 92.9818 157.758 92.6687C158.186 92.2968 158.36 91.8178 158.477 91.3136C158.627 90.6658 158.687 89.9758 158.87 89.327C158.937 89.086 159.067 88.9949 159.122 88.9545C159.263 88.8524 159.405 88.8251 159.539 88.8354C159.698 88.8472 159.916 88.9088 160.059 89.1821C160.079 89.2212 160.106 89.2808 160.124 89.3624C160.137 89.4222 160.145 89.6094 160.159 89.6865C160.194 89.8766 160.223 90.0666 160.25 90.2577C160.34 90.8936 160.392 91.4338 160.676 92.0181C161.063 92.8112 161.45 93.2965 161.975 93.5115C162.483 93.7194 163.09 93.6803 163.866 93.5173C163.94 93.4989 164.013 93.4832 164.085 93.4703C164.427 93.4089 164.754 93.6396 164.821 93.9897C164.888 94.3396 164.671 94.6806 164.332 94.7575C164.261 94.7735 164.191 94.7887 164.123 94.8026C163.074 95.0693 161.861 96.021 161.156 96.8543C160.938 97.1113 160.62 97.8297 160.295 98.2879C160.056 98.626 159.787 98.8488 159.56 98.9276C159.409 98.9806 159.281 98.9725 159.176 98.9457C159.023 98.9069 158.895 98.8215 158.798 98.6858C158.745 98.6116 158.695 98.5121 158.672 98.385C158.661 98.3239 158.659 98.1685 158.66 98.0982C158.593 97.8643 158.512 97.636 158.453 97.4C158.313 96.837 158.037 96.4806 157.709 96.0097C157.402 95.569 157.072 95.2921 156.589 95.0711C156.527 95.0554 156.02 94.9278 155.841 94.8546C155.579 94.7472 155.454 94.5674 155.409 94.4706C155.332 94.3063 155.324 94.1627 155.34 94.043C155.362 93.8664 155.44 93.7152 155.576 93.5931C155.661 93.5173 155.788 93.4435 155.958 93.4076C156.089 93.3795 156.436 93.3632 156.485 93.3609ZM159.459 92.4433C159.483 92.4971 159.508 92.5511 159.534 92.6057C160.1 93.7674 160.733 94.416 161.503 94.7307L161.528 94.7409C161.014 95.1336 160.548 95.5724 160.192 95.9932C160.045 96.1664 159.851 96.5262 159.641 96.8953C159.451 96.2588 159.139 95.8089 158.747 95.2459C158.448 94.8163 158.134 94.4929 157.749 94.2294C158.048 94.0716 158.333 93.8868 158.582 93.6711C158.996 93.3118 159.269 92.8955 159.459 92.4433Z" fill="#1749B3"/>
<path d="M41.6667 103.337C41.6191 103.736 41.2555 104.021 40.8558 103.97L41.6667 103.337ZM41.6667 103.337L41.981 103.375C42.3886 100.072 43.7903 97.3223 46.2633 95.0977L46.2634 95.0976C46.6911 94.7125 46.7279 94.0506 46.3429 93.6199C45.9599 93.1878 45.2981 93.1505 44.8692 93.5367C42.0101 96.1098 40.3804 99.3018 39.9096 103.115C39.8375 103.688 40.2461 104.212 40.8158 104.284L40.8162 104.284C41.3902 104.357 41.9128 103.948 41.9811 103.374L41.6667 103.337Z" fill="#011625" stroke="#011625" stroke-width="0.633333"/>
<mask id="path-20-outside-1_701_220" maskUnits="userSpaceOnUse" x="-7.94617" y="88.2801" width="69.5401" height="49.6561" fill="black">
<rect fill="white" x="-7.94617" y="88.2801" width="69.5401" height="49.6561"/>
<path fill-rule="evenodd" clip-rule="evenodd" d="M8.71406 104.145C8.26324 104.894 7.87803 105.684 7.57485 106.509C7.43956 106.876 7.22167 107.645 7.26869 108.267C7.31643 108.93 7.62612 109.446 8.24117 109.645C9.05802 109.908 9.65436 109.771 10.0819 109.463C10.4937 109.168 10.7731 108.672 10.8993 108.047C11.14 106.852 10.7998 105.14 10.4207 104.192C10.9157 103.48 11.4773 102.816 12.0948 102.207C16.6945 97.6683 24.5349 97.8079 31.2896 102.401C33.6537 104.009 35.2958 107.922 36.5161 112.231C38.417 118.941 39.1892 126.653 39.486 128.901C39.5605 129.456 39.665 129.776 39.7042 129.836C39.8909 130.137 40.1426 130.182 40.3142 130.187C40.5623 130.192 40.7472 130.115 40.8892 130.009C41.0809 129.864 41.2217 129.642 41.2537 129.327C41.27 129.154 41.2442 128.921 41.1987 128.675C41.1655 128.505 41.1009 128.323 41.1156 128.195C41.2131 127.373 41.3595 126.562 41.4992 125.747C41.9625 123.007 42.7104 120.389 43.5851 117.753C46.3635 109.379 48.9395 100.589 54.5857 93.6413C54.8389 93.3295 54.7941 92.8682 54.4821 92.6127C54.173 92.3567 53.7151 92.4025 53.4592 92.715C47.6996 99.8004 45.04 108.748 42.2058 117.288C41.4622 119.53 40.808 121.76 40.3356 124.059C39.8023 120.213 38.9173 114.912 37.4647 110.33C36.1731 106.254 34.3999 102.754 32.1019 101.191C24.7025 96.159 16.1124 96.191 11.0758 101.163C10.5372 101.695 10.0342 102.265 9.5779 102.87C5.73177 97.9428 -0.988934 96.8009 -6.20463 100.292C-6.53968 100.516 -6.62863 100.97 -6.40674 101.306C-6.18197 101.642 -5.73145 101.733 -5.3964 101.51C-0.696406 98.3633 5.39311 99.517 8.71406 104.145ZM9.42138 105.888C9.24201 106.256 9.08181 106.633 8.93782 107.019C8.86218 107.226 8.73721 107.621 8.71721 107.991C8.71345 108.077 8.73168 108.209 8.74143 108.269C8.95528 108.336 9.11787 108.358 9.2339 108.274C9.37914 108.17 9.42981 107.972 9.47411 107.754C9.58598 107.204 9.53868 106.507 9.42138 105.888Z"/>
</mask>
<path fill-rule="evenodd" clip-rule="evenodd" d="M8.71406 104.145C8.26324 104.894 7.87803 105.684 7.57485 106.509C7.43956 106.876 7.22167 107.645 7.26869 108.267C7.31643 108.93 7.62612 109.446 8.24117 109.645C9.05802 109.908 9.65436 109.771 10.0819 109.463C10.4937 109.168 10.7731 108.672 10.8993 108.047C11.14 106.852 10.7998 105.14 10.4207 104.192C10.9157 103.48 11.4773 102.816 12.0948 102.207C16.6945 97.6683 24.5349 97.8079 31.2896 102.401C33.6537 104.009 35.2958 107.922 36.5161 112.231C38.417 118.941 39.1892 126.653 39.486 128.901C39.5605 129.456 39.665 129.776 39.7042 129.836C39.8909 130.137 40.1426 130.182 40.3142 130.187C40.5623 130.192 40.7472 130.115 40.8892 130.009C41.0809 129.864 41.2217 129.642 41.2537 129.327C41.27 129.154 41.2442 128.921 41.1987 128.675C41.1655 128.505 41.1009 128.323 41.1156 128.195C41.2131 127.373 41.3595 126.562 41.4992 125.747C41.9625 123.007 42.7104 120.389 43.5851 117.753C46.3635 109.379 48.9395 100.589 54.5857 93.6413C54.8389 93.3295 54.7941 92.8682 54.4821 92.6127C54.173 92.3567 53.7151 92.4025 53.4592 92.715C47.6996 99.8004 45.04 108.748 42.2058 117.288C41.4622 119.53 40.808 121.76 40.3356 124.059C39.8023 120.213 38.9173 114.912 37.4647 110.33C36.1731 106.254 34.3999 102.754 32.1019 101.191C24.7025 96.159 16.1124 96.191 11.0758 101.163C10.5372 101.695 10.0342 102.265 9.5779 102.87C5.73177 97.9428 -0.988934 96.8009 -6.20463 100.292C-6.53968 100.516 -6.62863 100.97 -6.40674 101.306C-6.18197 101.642 -5.73145 101.733 -5.3964 101.51C-0.696406 98.3633 5.39311 99.517 8.71406 104.145ZM9.42138 105.888C9.24201 106.256 9.08181 106.633 8.93782 107.019C8.86218 107.226 8.73721 107.621 8.71721 107.991C8.71345 108.077 8.73168 108.209 8.74143 108.269C8.95528 108.336 9.11787 108.358 9.2339 108.274C9.37914 108.17 9.42981 107.972 9.47411 107.754C9.58598 107.204 9.53868 106.507 9.42138 105.888Z" fill="#011625"/>
<path d="M8.71406 104.145L9.25663 104.472L9.4717 104.115L9.22863 103.776L8.71406 104.145ZM7.57485 106.509L8.16911 106.728L8.16927 106.727L7.57485 106.509ZM7.26869 108.267L7.90039 108.221L7.90022 108.219L7.26869 108.267ZM8.24117 109.645L8.04617 110.247L8.04658 110.247L8.24117 109.645ZM10.0819 109.463L9.7124 108.949L9.71184 108.949L10.0819 109.463ZM10.8993 108.047L11.5201 108.172L11.5201 108.172L10.8993 108.047ZM10.4207 104.192L9.90062 103.831L9.70598 104.111L9.83271 104.428L10.4207 104.192ZM12.0948 102.207L11.65 101.756L11.65 101.756L12.0948 102.207ZM31.2896 102.401L31.6458 101.877L31.6457 101.877L31.2896 102.401ZM36.5161 112.231L35.9068 112.404L35.9068 112.404L36.5161 112.231ZM39.486 128.901L38.8581 128.984L38.8583 128.985L39.486 128.901ZM39.7042 129.836L40.2422 129.502L40.2366 129.493L39.7042 129.836ZM40.3142 130.187L40.2959 130.82L40.3027 130.821L40.3142 130.187ZM40.8892 130.009L41.2675 130.517L41.2705 130.515L40.8892 130.009ZM41.2537 129.327L41.8838 129.392L41.8842 129.387L41.2537 129.327ZM41.1987 128.675L41.8216 128.56L41.8203 128.553L41.1987 128.675ZM41.1156 128.195L40.4867 128.12L40.4864 128.123L41.1156 128.195ZM41.4992 125.747L42.1235 125.854L42.1237 125.852L41.4992 125.747ZM43.5851 117.753L44.1862 117.953L44.1862 117.953L43.5851 117.753ZM54.5857 93.6413L55.0772 94.0407L55.0774 94.0405L54.5857 93.6413ZM54.4821 92.6127L54.0782 93.1005L54.0809 93.1027L54.4821 92.6127ZM53.4592 92.715L52.9692 92.3137L52.9677 92.3155L53.4592 92.715ZM42.2058 117.288L41.6047 117.089L41.6047 117.089L42.2058 117.288ZM40.3356 124.059L39.7083 124.146L40.956 124.187L40.3356 124.059ZM37.4647 110.33L36.8609 110.521L36.861 110.521L37.4647 110.33ZM32.1019 101.191L32.4582 100.667L32.4581 100.667L32.1019 101.191ZM11.0758 101.163L10.6309 100.712L10.6308 100.712L11.0758 101.163ZM9.5779 102.87L9.07865 103.26L9.58642 103.91L10.0835 103.252L9.5779 102.87ZM-6.20463 100.292L-5.85305 100.819L-5.85231 100.819L-6.20463 100.292ZM-6.40674 101.306L-6.93525 101.655L-6.93294 101.658L-6.40674 101.306ZM-5.3964 101.51L-5.04483 102.036L-5.04409 102.036L-5.3964 101.51ZM9.42138 105.888L10.0437 105.77L9.68866 103.896L8.85217 105.61L9.42138 105.888ZM8.93782 107.019L8.34436 106.798L8.34294 106.802L8.93782 107.019ZM8.71721 107.991L8.08476 107.957L8.08447 107.963L8.71721 107.991ZM8.74143 108.269L8.11614 108.37L8.17854 108.758L8.55386 108.874L8.74143 108.269ZM9.2339 108.274L8.86535 107.759L8.86216 107.761L9.2339 108.274ZM9.47411 107.754L8.85351 107.627L8.85336 107.628L9.47411 107.754ZM8.1715 103.818C7.70134 104.599 7.2983 105.426 6.98043 106.29L8.16927 106.727C8.45776 105.943 8.82514 105.188 9.25663 104.472L8.1715 103.818ZM6.98059 106.29C6.83646 106.681 6.57966 107.554 6.63716 108.315L7.90022 108.219C7.86368 107.736 8.04265 107.071 8.16911 106.728L6.98059 106.29ZM6.63699 108.312C6.6979 109.158 7.12171 109.948 8.04617 110.247L8.43617 109.042C8.13053 108.943 7.93495 108.701 7.90039 108.221L6.63699 108.312ZM8.04658 110.247C9.03104 110.565 9.84155 110.417 10.4519 109.977L9.71184 108.949C9.46718 109.126 9.085 109.252 8.43575 109.042L8.04658 110.247ZM10.4514 109.978C11.0294 109.563 11.3724 108.903 11.5201 108.172L10.2785 107.921C10.1738 108.44 9.95792 108.773 9.7124 108.949L10.4514 109.978ZM11.5201 108.172C11.6606 107.474 11.6267 106.667 11.519 105.935C11.4105 105.197 11.2192 104.483 11.0087 103.957L9.83271 104.428C10.0013 104.849 10.1696 105.465 10.2658 106.119C10.3628 106.778 10.3786 107.424 10.2784 107.921L11.5201 108.172ZM10.9408 104.554C11.4129 103.875 11.9492 103.24 12.5397 102.658L11.65 101.756C11.0054 102.392 10.4184 103.086 9.90062 103.831L10.9408 104.554ZM12.5396 102.658C16.849 98.4057 24.3301 98.4345 30.9334 102.925L31.6457 101.877C24.7398 97.1813 16.5401 96.931 11.65 101.756L12.5396 102.658ZM30.9333 102.925C31.9848 103.64 32.9265 104.908 33.7653 106.586C34.599 108.254 35.3019 110.268 35.9068 112.404L37.1255 112.059C36.51 109.885 35.7818 107.788 34.8983 106.02C34.0198 104.263 32.9584 102.77 31.6458 101.877L30.9333 102.925ZM35.9068 112.404C37.7916 119.057 38.5576 126.708 38.8581 128.984L40.1139 128.818C39.8208 126.598 39.0423 118.825 37.1255 112.059L35.9068 112.404ZM38.8583 128.985C38.8985 129.285 38.9478 129.528 38.9949 129.712C39.0184 129.803 39.0424 129.884 39.0661 129.951C39.0834 130.001 39.1177 130.095 39.1718 130.179L40.2366 129.493C40.2498 129.514 40.2581 129.53 40.2615 129.537C40.2655 129.545 40.2677 129.55 40.2681 129.551C40.2689 129.552 40.2667 129.547 40.262 129.534C40.2527 129.507 40.2386 129.462 40.2217 129.396C40.1883 129.266 40.148 129.072 40.1137 128.817L38.8583 128.985ZM39.1663 130.171C39.5071 130.719 40.0062 130.812 40.2959 130.82L40.3326 129.554C40.2924 129.553 40.2806 129.548 40.2795 129.547C40.2792 129.547 40.2789 129.547 40.2785 129.547C40.278 129.546 40.2767 129.546 40.2744 129.544C40.2704 129.54 40.2585 129.529 40.2421 129.502L39.1663 130.171ZM40.3027 130.821C40.7027 130.828 41.0228 130.699 41.2675 130.517L40.5108 129.501C40.487 129.519 40.4641 129.531 40.4396 129.539C40.4156 129.547 40.3797 129.555 40.3258 129.554L40.3027 130.821ZM41.2705 130.515C41.6055 130.262 41.8343 129.878 41.8837 129.392L40.6236 129.263C40.6157 129.341 40.5964 129.391 40.5784 129.423C40.5604 129.455 40.5372 129.481 40.5078 129.503L41.2705 130.515ZM41.8842 129.387C41.9091 129.123 41.8692 128.818 41.8215 128.56L40.5759 128.79C40.6192 129.024 40.6308 129.186 40.6231 129.268L41.8842 129.387ZM41.8203 128.553C41.809 128.495 41.7957 128.44 41.7849 128.396C41.7729 128.347 41.7647 128.314 41.7573 128.281C41.7502 128.249 41.7475 128.233 41.7466 128.225C41.7455 128.216 41.7487 128.233 41.7448 128.267L40.4864 128.123C40.4658 128.302 40.502 128.471 40.5211 128.557C40.5521 128.696 40.5602 128.71 40.5772 128.796L41.8203 128.553ZM41.7445 128.269C41.8396 127.468 41.9822 126.678 42.1235 125.854L40.875 125.64C40.7367 126.447 40.5866 127.278 40.4867 128.12L41.7445 128.269ZM42.1237 125.852C42.5795 123.157 43.3167 120.573 44.1862 117.953L42.984 117.554C42.1042 120.205 41.3456 122.857 40.8748 125.641L42.1237 125.852ZM44.1862 117.953C46.9791 109.535 49.5209 100.878 55.0772 94.0407L54.0942 93.2418C48.3581 100.3 45.7479 109.223 42.984 117.554L44.1862 117.953ZM55.0774 94.0405C55.5488 93.46 55.4672 92.6007 54.8834 92.1227L54.0809 93.1027C54.1211 93.1356 54.1289 93.1991 54.0941 93.242L55.0774 94.0405ZM54.886 92.1248C54.3035 91.6425 53.4452 91.7326 52.9692 92.3137L53.9491 93.1164C53.9851 93.0725 54.0425 93.0709 54.0782 93.1005L54.886 92.1248ZM52.9677 92.3155C47.1187 99.511 44.4253 108.59 41.6047 117.089L42.8069 117.488C45.6547 108.907 48.2806 100.09 53.9506 93.1145L52.9677 92.3155ZM41.6047 117.089C40.8567 119.344 40.1944 121.6 39.7152 123.932L40.956 124.187C41.4215 121.921 42.0676 119.716 42.8069 117.488L41.6047 117.089ZM40.9629 123.972C40.4284 120.117 39.5377 114.774 38.0684 110.139L36.861 110.521C38.2969 115.051 39.1761 120.308 39.7083 124.146L40.9629 123.972ZM38.0684 110.139C37.4143 108.074 36.6324 106.137 35.7122 104.507C34.7954 102.883 33.7192 101.525 32.4582 100.667L31.7456 101.714C32.7826 102.42 33.742 103.594 34.6092 105.13C35.473 106.66 36.2235 108.51 36.8609 110.521L38.0684 110.139ZM32.4581 100.667C24.8949 95.5239 15.9494 95.462 10.6309 100.712L11.5208 101.613C16.2754 96.92 24.5101 96.7941 31.7458 101.715L32.4581 100.667ZM10.6308 100.712C10.0713 101.265 9.54795 101.858 9.07234 102.489L10.0835 103.252C10.5205 102.673 11.0031 102.125 11.5209 101.613L10.6308 100.712ZM10.0772 102.481C6.03019 97.2958 -1.06091 96.0869 -6.55695 99.7662L-5.85231 100.819C-0.916962 97.5148 5.43335 98.5897 9.07865 103.26L10.0772 102.481ZM-6.5562 99.7657C-7.18467 100.185 -7.34689 101.032 -6.93524 101.655L-5.87823 100.957C-5.91037 100.908 -5.89468 100.847 -5.85305 100.819L-6.5562 99.7657ZM-6.93294 101.658C-6.51597 102.281 -5.67377 102.456 -5.04483 102.036L-5.74797 100.983C-5.78913 101.01 -5.84798 101.002 -5.88053 100.954L-6.93294 101.658ZM-5.04409 102.036C-0.634125 99.0838 5.07355 100.158 8.1995 104.514L9.22863 103.776C5.71268 98.876 -0.758687 97.6429 -5.74871 100.983L-5.04409 102.036ZM8.85217 105.61C8.66313 105.998 8.49496 106.394 8.34438 106.798L9.53127 107.24C9.66866 106.872 9.82089 106.514 9.99059 106.166L8.85217 105.61ZM8.34294 106.802C8.26118 107.026 8.10997 107.491 8.0848 107.957L9.34962 108.025C9.36446 107.751 9.46318 107.427 9.5327 107.236L8.34294 106.802ZM8.08447 107.963C8.07757 108.122 8.107 108.313 8.11614 108.37L9.36673 108.169C9.36318 108.147 9.35799 108.111 9.35422 108.075C9.35236 108.057 9.35114 108.041 9.3505 108.029C9.34981 108.016 9.35017 108.013 9.34995 108.018L8.08447 107.963ZM8.55386 108.874C8.67522 108.912 8.8325 108.954 8.99822 108.961C9.17565 108.968 9.39935 108.936 9.60564 108.787L8.86216 107.761C8.90329 107.732 8.94668 107.713 8.98504 107.704C9.02098 107.695 9.04525 107.695 9.05047 107.695C9.05518 107.696 9.04819 107.696 9.02516 107.691C9.00246 107.686 8.97146 107.678 8.929 107.665L8.55386 108.874ZM9.60245 108.789C9.80633 108.643 9.916 108.45 9.97888 108.295C10.0395 108.145 10.0726 107.989 10.0949 107.879L8.85336 107.628C8.84301 107.679 8.83423 107.719 8.82537 107.753C8.81653 107.787 8.8095 107.808 8.80484 107.819C8.79499 107.844 8.80671 107.801 8.86535 107.759L9.60245 108.789ZM10.0947 107.88C10.2299 107.216 10.168 106.427 10.0437 105.77L8.79911 106.006C8.90932 106.588 8.94203 107.193 8.85351 107.627L10.0947 107.88Z" fill="#011625" mask="url(#path-20-outside-1_701_220)"/>
<defs>
<linearGradient id="paint0_linear_701_220" x1="94.9097" y1="-2.5319" x2="96.4341" y2="258.808" gradientUnits="userSpaceOnUse">
<stop stop-color="#E9E6E6"/>
<stop offset="0.276042" stop-color="#F7F7F7"/>
</linearGradient>
</defs>
</svg>
